<?xml version="1.0" encoding="UTF-8"?>
<!-- Generated by @neplex/vectorizer (Using visioncortex VTracer) -->
<svg xmlns="http://www.w3.org/2000/svg" viewBox="0 0 320 704" width="40" height="88">
<path d="M0 0 C5.28 0 10.56 0 16 0 C16 15.84 16 31.68 16 48 C13.36 48 10.72 48 8 48 C8 45.36 8 42.72 8 40 C5.36 40 2.72 40 0 40 C0 37.36 0 34.72 0 32 C2.64 32 5.28 32 8 32 C8 26.72 8 21.44 8 16 C5.36 16 2.72 16 0 16 C0 10.72 0 5.44 0 0 Z " fill="#000000" transform="translate(152,0)"/>
<path d="M0 0 C2.64 0 5.28 0 8 0 C8 2.64 8 5.28 8 8 C5.36 8 2.72 8 0 8 C0 5.36 0 2.72 0 0 Z " fill="#000000" transform="translate(144,40)"/>
<path d="M0 0 C2.64 0 5.28 0 8 0 C8 2.64 8 5.28 8 8 C5.36 8 2.72 8 0 8 C0 5.36 0 2.72 0 0 Z " fill="#000000" transform="translate(176,48)"/>
<path d="M0 0 C2.64 0 5.28 0 8 0 C8 2.64 8 5.28 8 8 C5.36 8 2.72 8 0 8 C0 5.36 0 2.72 0 0 Z " fill="#000000" transform="translate(136,56)"/>
<path d="M0 0 C2.64 0 5.28 0 8 0 C8 7.92 8 15.84 8 24 C10.64 24 13.28 24 16 24 C16 29.28 16 34.56 16 40 C18.64 40 21.28 40 24 40 C24 42.64 24 45.28 24 48 C26.64 48 29.28 48 32 48 C32 53.28 32 58.56 32 64 C34.64 64 37.28 64 40 64 C40 69.28 40 74.56 40 80 C37.36 80 34.72 80 32 80 C32 77.36 32 74.72 32 72 C29.36 72 26.72 72 24 72 C24 66.72 24 61.44 24 56 C21.36 56 18.72 56 16 56 C16 61.28 16 66.56 16 72 C13.36 72 10.72 72 8 72 C8 77.28 8 82.56 8 88 C5.36 88 2.72 88 0 88 C0 82.72 0 77.44 0 72 C-2.64 72 -5.28 72 -8 72 C-8 66.72 -8 61.44 -8 56 C-10.64 56 -13.28 56 -16 56 C-16 58.64 -16 61.28 -16 64 C-18.64 64 -21.28 64 -24 64 C-24 66.64 -24 69.28 -24 72 C-26.64 72 -29.28 72 -32 72 C-32 77.28 -32 82.56 -32 88 C-34.64 88 -37.28 88 -40 88 C-40 90.64 -40 93.28 -40 96 C-42.64 96 -45.28 96 -48 96 C-48 98.64 -48 101.28 -48 104 C-50.64 104 -53.28 104 -56 104 C-56 106.64 -56 109.28 -56 112 C-58.64 112 -61.28 112 -64 112 C-64 114.64 -64 117.28 -64 120 C-66.64 120 -69.28 120 -72 120 C-72 122.64 -72 125.28 -72 128 C-74.64 128 -77.28 128 -80 128 C-80 130.64 -80 133.28 -80 136 C-82.64 136 -85.28 136 -88 136 C-88 138.64 -88 141.28 -88 144 C-90.64 144 -93.28 144 -96 144 C-96 146.64 -96 149.28 -96 152 C-98.64 152 -101.28 152 -104 152 C-104 154.64 -104 157.28 -104 160 C-106.64 160 -109.28 160 -112 160 C-112 154.72 -112 149.44 -112 144 C-109.36 144 -106.72 144 -104 144 C-104 141.36 -104 138.72 -104 136 C-101.36 136 -98.72 136 -96 136 C-96 133.36 -96 130.72 -96 128 C-93.36 128 -90.72 128 -88 128 C-88 125.36 -88 122.72 -88 120 C-85.36 120 -82.72 120 -80 120 C-80 117.36 -80 114.72 -80 112 C-77.36 112 -74.72 112 -72 112 C-72 109.36 -72 106.72 -72 104 C-69.36 104 -66.72 104 -64 104 C-64 101.36 -64 98.72 -64 96 C-61.36 96 -58.72 96 -56 96 C-56 93.36 -56 90.72 -56 88 C-53.36 88 -50.72 88 -48 88 C-48 85.36 -48 82.72 -48 80 C-45.36 80 -42.72 80 -40 80 C-40 74.72 -40 69.44 -40 64 C-37.36 64 -34.72 64 -32 64 C-32 61.36 -32 58.72 -32 56 C-29.36 56 -26.72 56 -24 56 C-24 53.36 -24 50.72 -24 48 C-21.36 48 -18.72 48 -16 48 C-16 45.36 -16 42.72 -16 40 C-13.36 40 -10.72 40 -8 40 C-8 32.08 -8 24.16 -8 16 C-5.36 16 -2.72 16 0 16 C0 10.72 0 5.44 0 0 Z M0 40 C0 42.64 0 45.28 0 48 C2.64 48 5.28 48 8 48 C8 45.36 8 42.72 8 40 C5.36 40 2.72 40 0 40 Z M8 48 C8 50.64 8 53.28 8 56 C10.64 56 13.28 56 16 56 C16 53.36 16 50.72 16 48 C13.36 48 10.72 48 8 48 Z " fill="#000000" transform="translate(160,80)"/>
<path d="M0 0 C2.64 0 5.28 0 8 0 C8 2.64 8 5.28 8 8 C5.36 8 2.72 8 0 8 C0 5.36 0 2.72 0 0 Z " fill="#000000" transform="translate(136,88)"/>
<path d="M0 0 C2.64 0 5.28 0 8 0 C8 5.28 8 10.56 8 16 C5.36 16 2.72 16 0 16 C0 10.72 0 5.44 0 0 Z " fill="#000000" transform="translate(128,96)"/>
<path d="M0 0 C2.64 0 5.28 0 8 0 C8 10.56 8 21.12 8 32 C2.72 32 -2.56 32 -8 32 C-8 29.36 -8 26.72 -8 24 C-10.64 24 -13.28 24 -16 24 C-16 21.36 -16 18.72 -16 16 C-13.36 16 -10.72 16 -8 16 C-8 13.36 -8 10.72 -8 8 C-5.36 8 -2.72 8 0 8 C0 5.36 0 2.72 0 0 Z " fill="#000000" transform="translate(56,128)"/>
<path d="M0 0 C2.64 0 5.28 0 8 0 C8 5.28 8 10.56 8 16 C0.08 16 -7.84 16 -16 16 C-16 13.36 -16 10.72 -16 8 C-10.72 8 -5.44 8 0 8 C0 5.36 0 2.72 0 0 Z " fill="#000000" transform="translate(104,136)"/>
<path d="M0 0 C7.92 0 15.84 0 24 0 C24 5.28 24 10.56 24 16 C18.72 16 13.44 16 8 16 C8 13.36 8 10.72 8 8 C5.36 8 2.72 8 0 8 C0 5.36 0 2.72 0 0 Z " fill="#000000" transform="translate(200,136)"/>
<path d="M0 0 C2.64 0 5.28 0 8 0 C8 2.64 8 5.28 8 8 C5.36 8 2.72 8 0 8 C0 5.36 0 2.72 0 0 Z " fill="#000000" transform="translate(232,144)"/>
<path d="M0 0 C10.56 0 21.12 0 32 0 C32 5.28 32 10.56 32 16 C24.08 16 16.16 16 8 16 C8 13.36 8 10.72 8 8 C5.36 8 2.72 8 0 8 C0 5.36 0 2.72 0 0 Z " fill="#000000" transform="translate(264,144)"/>
<path d="M0 0 C7.92 0 15.84 0 24 0 C24 2.64 24 5.28 24 8 C21.36 8 18.72 8 16 8 C16 10.64 16 13.28 16 16 C13.36 16 10.72 16 8 16 C8 13.36 8 10.72 8 8 C5.36 8 2.72 8 0 8 C0 5.36 0 2.72 0 0 Z " fill="#000000" transform="translate(0,152)"/>
<path d="M0 0 C5.28 0 10.56 0 16 0 C16 2.64 16 5.28 16 8 C10.72 8 5.44 8 0 8 C0 5.36 0 2.72 0 0 Z " fill="#000000" transform="translate(304,152)"/>
<path d="M0 0 C2.64 0 5.28 0 8 0 C8 2.64 8 5.28 8 8 C10.64 8 13.28 8 16 8 C16 10.64 16 13.28 16 16 C18.64 16 21.28 16 24 16 C24 18.64 24 21.28 24 24 C26.64 24 29.28 24 32 24 C32 26.64 32 29.28 32 32 C34.64 32 37.28 32 40 32 C40 34.64 40 37.28 40 40 C45.28 40 50.56 40 56 40 C56 42.64 56 45.28 56 48 C58.64 48 61.28 48 64 48 C64 50.64 64 53.28 64 56 C66.64 56 69.28 56 72 56 C72 58.64 72 61.28 72 64 C74.64 64 77.28 64 80 64 C80 66.64 80 69.28 80 72 C82.64 72 85.28 72 88 72 C88 69.36 88 66.72 88 64 C93.28 64 98.56 64 104 64 C104 69.28 104 74.56 104 80 C109.28 80 114.56 80 120 80 C120 85.28 120 90.56 120 96 C114.72 96 109.44 96 104 96 C104 93.36 104 90.72 104 88 C101.36 88 98.72 88 96 88 C96 90.64 96 93.28 96 96 C90.72 96 85.44 96 80 96 C80 93.36 80 90.72 80 88 C77.36 88 74.72 88 72 88 C72 82.72 72 77.44 72 72 C69.36 72 66.72 72 64 72 C64 69.36 64 66.72 64 64 C61.36 64 58.72 64 56 64 C56 61.36 56 58.72 56 56 C50.72 56 45.44 56 40 56 C40 53.36 40 50.72 40 48 C37.36 48 34.72 48 32 48 C32 45.36 32 42.72 32 40 C29.36 40 26.72 40 24 40 C24 37.36 24 34.72 24 32 C21.36 32 18.72 32 16 32 C16 29.36 16 26.72 16 24 C13.36 24 10.72 24 8 24 C8 21.36 8 18.72 8 16 C5.36 16 2.72 16 0 16 C0 10.72 0 5.44 0 0 Z M88 72 C88 74.64 88 77.28 88 80 C90.64 80 93.28 80 96 80 C96 77.36 96 74.72 96 72 C93.36 72 90.72 72 88 72 Z " fill="#000000" transform="translate(200,160)"/>
<path d="M0 0 C2.64 0 5.28 0 8 0 C8 5.28 8 10.56 8 16 C5.36 16 2.72 16 0 16 C0 10.72 0 5.44 0 0 Z " fill="#000000" transform="translate(64,168)"/>
<path d="M0 0 C2.64 0 5.28 0 8 0 C8 5.28 8 10.56 8 16 C5.36 16 2.72 16 0 16 C0 10.72 0 5.44 0 0 Z " fill="#000000" transform="translate(56,184)"/>
<path d="M0 0 C2.64 0 5.28 0 8 0 C8 2.64 8 5.28 8 8 C5.36 8 2.72 8 0 8 C0 5.36 0 2.72 0 0 Z " fill="#000000" transform="translate(256,184)"/>
<path d="M0 0 C2.64 0 5.28 0 8 0 C8 2.64 8 5.28 8 8 C5.36 8 2.72 8 0 8 C0 5.36 0 2.72 0 0 Z " fill="#000000" transform="translate(264,192)"/>
<path d="M0 0 C2.64 0 5.28 0 8 0 C8 5.28 8 10.56 8 16 C5.36 16 2.72 16 0 16 C0 18.64 0 21.28 0 24 C-2.64 24 -5.28 24 -8 24 C-8 18.72 -8 13.44 -8 8 C-5.36 8 -2.72 8 0 8 C0 5.36 0 2.72 0 0 Z " fill="#000000" transform="translate(48,200)"/>
<path d="M0 0 C2.64 0 5.28 0 8 0 C8 2.64 8 5.28 8 8 C5.36 8 2.72 8 0 8 C0 5.36 0 2.72 0 0 Z " fill="#000000" transform="translate(120,200)"/>
<path d="M0 0 C2.64 0 5.28 0 8 0 C8 7.92 8 15.84 8 24 C5.36 24 2.72 24 0 24 C0 16.08 0 8.16 0 0 Z " fill="#000000" transform="translate(160,200)"/>
<path d="M0 0 C2.64 0 5.28 0 8 0 C8 2.64 8 5.28 8 8 C5.36 8 2.72 8 0 8 C0 5.36 0 2.72 0 0 Z " fill="#000000" transform="translate(272,200)"/>
<path d="M0 0 C2.64 0 5.28 0 8 0 C8 2.64 8 5.28 8 8 C5.36 8 2.72 8 0 8 C0 5.36 0 2.72 0 0 Z " fill="#000000" transform="translate(280,216)"/>
<path d="M0 0 C2.64 0 5.28 0 8 0 C8 5.28 8 10.56 8 16 C10.64 16 13.28 16 16 16 C16 21.28 16 26.56 16 32 C5.44 32 -5.12 32 -16 32 C-16 29.36 -16 26.72 -16 24 C-13.36 24 -10.72 24 -8 24 C-8 18.72 -8 13.44 -8 8 C-5.36 8 -2.72 8 0 8 C0 5.36 0 2.72 0 0 Z " fill="#000000" transform="translate(32,224)"/>
<path d="M0 0 C2.64 0 5.28 0 8 0 C8 7.92 8 15.84 8 24 C10.64 24 13.28 24 16 24 C16 26.64 16 29.28 16 32 C10.72 32 5.44 32 0 32 C0 21.44 0 10.88 0 0 Z " fill="#000000" transform="translate(160,248)"/>
<path d="M0 0 C2.64 0 5.28 0 8 0 C8 2.64 8 5.28 8 8 C5.36 8 2.72 8 0 8 C0 5.36 0 2.72 0 0 Z " fill="#000000" transform="translate(232,248)"/>
<path d="M0 0 C2.64 0 5.28 0 8 0 C8 2.64 8 5.28 8 8 C5.36 8 2.72 8 0 8 C0 5.36 0 2.72 0 0 Z " fill="#000000" transform="translate(248,248)"/>
<path d="M0 0 C2.64 0 5.28 0 8 0 C8 2.64 8 5.28 8 8 C5.36 8 2.72 8 0 8 C0 5.36 0 2.72 0 0 Z " fill="#000000" transform="translate(264,248)"/>
<path d="M0 0 C2.64 0 5.28 0 8 0 C8 7.92 8 15.84 8 24 C5.36 24 2.72 24 0 24 C0 21.36 0 18.72 0 16 C-2.64 16 -5.28 16 -8 16 C-8 13.36 -8 10.72 -8 8 C-5.36 8 -2.72 8 0 8 C0 5.36 0 2.72 0 0 Z " fill="#000000" transform="translate(160,312)"/>
<path d="M0 0 C2.64 0 5.28 0 8 0 C8 5.28 8 10.56 8 16 C10.64 16 13.28 16 16 16 C16 21.28 16 26.56 16 32 C18.64 32 21.28 32 24 32 C24 39.92 24 47.84 24 56 C18.72 56 13.44 56 8 56 C8 85.04 8 114.08 8 144 C10.64 144 13.28 144 16 144 C16 141.36 16 138.72 16 136 C18.64 136 21.28 136 24 136 C24 143.92 24 151.84 24 160 C21.36 160 18.72 160 16 160 C16 157.36 16 154.72 16 152 C13.36 152 10.72 152 8 152 C8 165.2 8 178.4 8 192 C13.28 192 18.56 192 24 192 C24 189.36 24 186.72 24 184 C29.28 184 34.56 184 40 184 C40 181.36 40 178.72 40 176 C42.64 176 45.28 176 48 176 C48 183.92 48 191.84 48 200 C45.36 200 42.72 200 40 200 C40 197.36 40 194.72 40 192 C37.36 192 34.72 192 32 192 C32 194.64 32 197.28 32 200 C24.08 200 16.16 200 8 200 C8 207.92 8 215.84 8 224 C5.36 224 2.72 224 0 224 C0 218.72 0 213.44 0 208 C-2.64 208 -5.28 208 -8 208 C-8 205.36 -8 202.72 -8 200 C-15.92 200 -23.84 200 -32 200 C-32 197.36 -32 194.72 -32 192 C-34.64 192 -37.28 192 -40 192 C-40 186.72 -40 181.44 -40 176 C-37.36 176 -34.72 176 -32 176 C-32 178.64 -32 181.28 -32 184 C-24.08 184 -16.16 184 -8 184 C-8 186.64 -8 189.28 -8 192 C-5.36 192 -2.72 192 0 192 C0 178.8 0 165.6 0 152 C-2.64 152 -5.28 152 -8 152 C-8 146.72 -8 141.44 -8 136 C-5.36 136 -2.72 136 0 136 C0 112.24 0 88.48 0 64 C-2.64 64 -5.28 64 -8 64 C-8 56.08 -8 48.16 -8 40 C-10.64 40 -13.28 40 -16 40 C-16 32.08 -16 24.16 -16 16 C-13.36 16 -10.72 16 -8 16 C-8 13.36 -8 10.72 -8 8 C-5.36 8 -2.72 8 0 8 C0 5.36 0 2.72 0 0 Z M0 32 C0 37.28 0 42.56 0 48 C5.28 48 10.56 48 16 48 C16 45.36 16 42.72 16 40 C13.36 40 10.72 40 8 40 C8 37.36 8 34.72 8 32 C5.36 32 2.72 32 0 32 Z " fill="#000000" transform="translate(160,408)"/>
<path d="M0 0 C2.64 0 5.28 0 8 0 C8 2.64 8 5.28 8 8 C5.36 8 2.72 8 0 8 C0 5.36 0 2.72 0 0 Z " fill="#000000" transform="translate(88,448)"/>
<path d="M0 0 C2.64 0 5.28 0 8 0 C8 2.64 8 5.28 8 8 C5.36 8 2.72 8 0 8 C0 5.36 0 2.72 0 0 Z " fill="#000000" transform="translate(136,448)"/>
<path d="M0 0 C2.64 0 5.28 0 8 0 C8 2.64 8 5.28 8 8 C5.36 8 2.72 8 0 8 C0 5.36 0 2.72 0 0 Z " fill="#000000" transform="translate(72,464)"/>
<path d="M0 0 C2.64 0 5.28 0 8 0 C8 2.64 8 5.28 8 8 C5.36 8 2.72 8 0 8 C0 5.36 0 2.72 0 0 Z " fill="#000000" transform="translate(56,480)"/>
<path d="M0 0 C2.64 0 5.28 0 8 0 C8 2.64 8 5.28 8 8 C5.36 8 2.72 8 0 8 C0 5.36 0 2.72 0 0 Z " fill="#000000" transform="translate(80,480)"/>
<path d="M0 0 C2.64 0 5.28 0 8 0 C8 5.28 8 10.56 8 16 C5.36 16 2.72 16 0 16 C0 18.64 0 21.28 0 24 C-5.28 24 -10.56 24 -16 24 C-16 21.36 -16 18.72 -16 16 C-13.36 16 -10.72 16 -8 16 C-8 13.36 -8 10.72 -8 8 C-5.36 8 -2.72 8 0 8 C0 5.36 0 2.72 0 0 Z " fill="#000000" transform="translate(208,504)"/>
<path d="M0 0 C2.64 0 5.28 0 8 0 C8 2.64 8 5.28 8 8 C13.28 8 18.56 8 24 8 C24 10.64 24 13.28 24 16 C16.08 16 8.16 16 0 16 C0 10.72 0 5.44 0 0 Z " fill="#000000" transform="translate(120,512)"/>
<path d="M0 0 C2.64 0 5.28 0 8 0 C8 5.28 8 10.56 8 16 C5.36 16 2.72 16 0 16 C0 10.72 0 5.44 0 0 Z " fill="#000000" transform="translate(112,536)"/>
<path d="M0 0 C7.92 0 15.84 0 24 0 C24 5.28 24 10.56 24 16 C18.72 16 13.44 16 8 16 C8 13.36 8 10.72 8 8 C5.36 8 2.72 8 0 8 C0 5.36 0 2.72 0 0 Z " fill="#000000" transform="translate(16,552)"/>
<path d="M0 0 C5.28 0 10.56 0 16 0 C16 2.64 16 5.28 16 8 C13.36 8 10.72 8 8 8 C8 10.64 8 13.28 8 16 C5.36 16 2.72 16 0 16 C0 10.72 0 5.44 0 0 Z " fill="#000000" transform="translate(48,552)"/>
<path d="M0 0 C2.64 0 5.28 0 8 0 C8 2.64 8 5.28 8 8 C10.64 8 13.28 8 16 8 C16 10.64 16 13.28 16 16 C10.72 16 5.44 16 0 16 C0 10.72 0 5.44 0 0 Z " fill="#000000" transform="translate(208,552)"/>
<path d="M0 0 C5.28 0 10.56 0 16 0 C16 5.28 16 10.56 16 16 C10.72 16 5.44 16 0 16 C0 10.72 0 5.44 0 0 Z " fill="#000000" transform="translate(288,552)"/>
<path d="M0 0 C2.64 0 5.28 0 8 0 C8 2.64 8 5.28 8 8 C5.36 8 2.72 8 0 8 C0 5.36 0 2.72 0 0 Z " fill="#000000" transform="translate(104,560)"/>
<path d="M0 0 C2.64 0 5.28 0 8 0 C8 2.64 8 5.28 8 8 C5.36 8 2.72 8 0 8 C0 5.36 0 2.72 0 0 Z " fill="#000000" transform="translate(272,560)"/>
<path d="M0 0 C2.64 0 5.28 0 8 0 C8 2.64 8 5.28 8 8 C5.36 8 2.72 8 0 8 C0 5.36 0 2.72 0 0 Z " fill="#000000" transform="translate(112,576)"/>
<path d="M0 0 C2.64 0 5.28 0 8 0 C8 2.64 8 5.28 8 8 C5.36 8 2.72 8 0 8 C0 5.36 0 2.72 0 0 Z " fill="#000000" transform="translate(56,592)"/>
<path d="M0 0 C2.64 0 5.28 0 8 0 C8 5.28 8 10.56 8 16 C5.36 16 2.72 16 0 16 C0 10.72 0 5.44 0 0 Z " fill="#000000" transform="translate(120,608)"/>
<path d="M0 0 C2.64 0 5.28 0 8 0 C8 2.64 8 5.28 8 8 C5.36 8 2.72 8 0 8 C0 5.36 0 2.72 0 0 Z " fill="#000000" transform="translate(208,608)"/>
<path d="M0 0 C2.64 0 5.28 0 8 0 C8 2.64 8 5.28 8 8 C5.36 8 2.72 8 0 8 C0 5.36 0 2.72 0 0 Z " fill="#000000" transform="translate(88,640)"/>
<path d="M0 0 C2.64 0 5.28 0 8 0 C8 2.64 8 5.28 8 8 C5.36 8 2.72 8 0 8 C0 5.36 0 2.72 0 0 Z " fill="#000000" transform="translate(264,640)"/>
<path d="M0 0 C2.64 0 5.28 0 8 0 C8 2.64 8 5.28 8 8 C5.36 8 2.72 8 0 8 C0 5.36 0 2.72 0 0 Z " fill="#000000" transform="translate(248,656)"/>
<path d="M0 0 C2.64 0 5.28 0 8 0 C8 5.28 8 10.56 8 16 C10.64 16 13.28 16 16 16 C16 18.64 16 21.28 16 24 C13.36 24 10.72 24 8 24 C8 26.64 8 29.28 8 32 C2.72 32 -2.56 32 -8 32 C-8 26.72 -8 21.44 -8 16 C-5.36 16 -2.72 16 0 16 C0 10.72 0 5.44 0 0 Z " fill="#000000" transform="translate(160,672)"/>
</svg>
