<?xml version="1.0" encoding="UTF-8"?>
<!-- Generated by @neplex/vectorizer (Using visioncortex VTracer) -->
<svg xmlns="http://www.w3.org/2000/svg" viewBox="0 0 256 704" width="32" height="88">
<path d="M0 0 C2.64 0 5.28 0 8 0 C8 5.28 8 10.56 8 16 C5.36 16 2.72 16 0 16 C0 10.72 0 5.44 0 0 Z " fill="#000000" transform="translate(120,0)"/>
<path d="M0 0 C2.64 0 5.28 0 8 0 C8 7.92 8 15.84 8 24 C5.36 24 2.72 24 0 24 C0 16.08 0 8.16 0 0 Z " fill="#000000" transform="translate(120,24)"/>
<path d="M0 0 C5.28 0 10.56 0 16 0 C16 2.64 16 5.28 16 8 C18.64 8 21.28 8 24 8 C24 13.28 24 18.56 24 24 C21.36 24 18.72 24 16 24 C16 26.64 16 29.28 16 32 C18.64 32 21.28 32 24 32 C24 34.64 24 37.28 24 40 C21.36 40 18.72 40 16 40 C16 42.64 16 45.28 16 48 C13.36 48 10.72 48 8 48 C8 45.36 8 42.72 8 40 C5.36 40 2.72 40 0 40 C0 37.36 0 34.72 0 32 C2.64 32 5.28 32 8 32 C8 29.36 8 26.72 8 24 C5.36 24 2.72 24 0 24 C0 16.08 0 8.16 0 0 Z " fill="#000000" transform="translate(112,80)"/>
<path d="M0 0 C7.92 0 15.84 0 24 0 C24 2.64 24 5.28 24 8 C26.64 8 29.28 8 32 8 C32 13.28 32 18.56 32 24 C34.64 24 37.28 24 40 24 C40 26.64 40 29.28 40 32 C34.72 32 29.44 32 24 32 C24 26.72 24 21.44 24 16 C21.36 16 18.72 16 16 16 C16 13.36 16 10.72 16 8 C13.36 8 10.72 8 8 8 C8 10.64 8 13.28 8 16 C2.72 16 -2.56 16 -8 16 C-8 13.36 -8 10.72 -8 8 C-5.36 8 -2.72 8 0 8 C0 5.36 0 2.72 0 0 Z " fill="#000000" transform="translate(72,96)"/>
<path d="M0 0 C10.56 0 21.12 0 32 0 C32 5.28 32 10.56 32 16 C21.44 16 10.88 16 0 16 C0 10.72 0 5.44 0 0 Z " fill="#000000" transform="translate(144,96)"/>
<path d="M0 0 C2.64 0 5.28 0 8 0 C8 2.64 8 5.28 8 8 C13.28 8 18.56 8 24 8 C24 5.36 24 2.72 24 0 C29.28 0 34.56 0 40 0 C40 5.28 40 10.56 40 16 C37.36 16 34.72 16 32 16 C32 21.28 32 26.56 32 32 C26.72 32 21.44 32 16 32 C16 29.36 16 26.72 16 24 C13.36 24 10.72 24 8 24 C8 21.36 8 18.72 8 16 C5.36 16 2.72 16 0 16 C0 10.72 0 5.44 0 0 Z " fill="#000000" transform="translate(56,128)"/>
<path d="M0 0 C5.28 0 10.56 0 16 0 C16 5.28 16 10.56 16 16 C13.36 16 10.72 16 8 16 C8 18.64 8 21.28 8 24 C10.64 24 13.28 24 16 24 C16 26.64 16 29.28 16 32 C10.72 32 5.44 32 0 32 C0 26.72 0 21.44 0 16 C-5.28 16 -10.56 16 -16 16 C-16 18.64 -16 21.28 -16 24 C-18.64 24 -21.28 24 -24 24 C-24 18.72 -24 13.44 -24 8 C-16.08 8 -8.16 8 0 8 C0 5.36 0 2.72 0 0 Z " fill="#000000" transform="translate(184,128)"/>
<path d="M0 0 C10.56 0 21.12 0 32 0 C32 2.64 32 5.28 32 8 C29.36 8 26.72 8 24 8 C24 10.64 24 13.28 24 16 C16.08 16 8.16 16 0 16 C0 21.28 0 26.56 0 32 C2.64 32 5.28 32 8 32 C8 34.64 8 37.28 8 40 C13.28 40 18.56 40 24 40 C24 42.64 24 45.28 24 48 C16.08 48 8.16 48 0 48 C0 45.36 0 42.72 0 40 C-2.64 40 -5.28 40 -8 40 C-8 37.36 -8 34.72 -8 32 C-10.64 32 -13.28 32 -16 32 C-16 26.72 -16 21.44 -16 16 C-13.36 16 -10.72 16 -8 16 C-8 13.36 -8 10.72 -8 8 C-5.36 8 -2.72 8 0 8 C0 5.36 0 2.72 0 0 Z " fill="#000000" transform="translate(16,136)"/>
<path d="M0 0 C2.64 0 5.28 0 8 0 C8 2.64 8 5.28 8 8 C10.64 8 13.28 8 16 8 C16 15.92 16 23.84 16 32 C13.36 32 10.72 32 8 32 C8 34.64 8 37.28 8 40 C5.36 40 2.72 40 0 40 C0 37.36 0 34.72 0 32 C-2.64 32 -5.28 32 -8 32 C-8 24.08 -8 16.16 -8 8 C-5.36 8 -2.72 8 0 8 C0 5.36 0 2.72 0 0 Z " fill="#000000" transform="translate(120,136)"/>
<path d="M0 0 C2.64 0 5.28 0 8 0 C8 2.64 8 5.28 8 8 C5.36 8 2.72 8 0 8 C0 5.36 0 2.72 0 0 Z " fill="#000000" transform="translate(208,136)"/>
<path d="M0 0 C5.28 0 10.56 0 16 0 C16 2.64 16 5.28 16 8 C18.64 8 21.28 8 24 8 C24 13.28 24 18.56 24 24 C18.72 24 13.44 24 8 24 C8 18.72 8 13.44 8 8 C5.36 8 2.72 8 0 8 C0 5.36 0 2.72 0 0 Z " fill="#000000" transform="translate(232,144)"/>
<path d="M0 0 C2.64 0 5.28 0 8 0 C8 5.28 8 10.56 8 16 C5.36 16 2.72 16 0 16 C0 10.72 0 5.44 0 0 Z " fill="#000000" transform="translate(152,152)"/>
<path d="M0 0 C2.64 0 5.28 0 8 0 C8 2.64 8 5.28 8 8 C10.64 8 13.28 8 16 8 C16 13.28 16 18.56 16 24 C18.64 24 21.28 24 24 24 C24 31.92 24 39.84 24 48 C21.36 48 18.72 48 16 48 C16 42.72 16 37.44 16 32 C13.36 32 10.72 32 8 32 C8 26.72 8 21.44 8 16 C5.36 16 2.72 16 0 16 C0 10.72 0 5.44 0 0 Z " fill="#000000" transform="translate(72,168)"/>
<path d="M0 0 C2.64 0 5.28 0 8 0 C8 5.28 8 10.56 8 16 C5.36 16 2.72 16 0 16 C0 10.72 0 5.44 0 0 Z " fill="#000000" transform="translate(184,168)"/>
<path d="M0 0 C5.28 0 10.56 0 16 0 C16 2.64 16 5.28 16 8 C10.72 8 5.44 8 0 8 C0 5.36 0 2.72 0 0 Z " fill="#000000" transform="translate(224,168)"/>
<path d="M0 0 C2.64 0 5.28 0 8 0 C8 2.64 8 5.28 8 8 C5.36 8 2.72 8 0 8 C0 5.36 0 2.72 0 0 Z " fill="#000000" transform="translate(216,176)"/>
<path d="M0 0 C5.28 0 10.56 0 16 0 C16 2.64 16 5.28 16 8 C21.28 8 26.56 8 32 8 C32 5.36 32 2.72 32 0 C34.64 0 37.28 0 40 0 C40 5.28 40 10.56 40 16 C37.36 16 34.72 16 32 16 C32 18.64 32 21.28 32 24 C26.72 24 21.44 24 16 24 C16 21.36 16 18.72 16 16 C10.72 16 5.44 16 0 16 C0 10.72 0 5.44 0 0 Z " fill="#000000" transform="translate(168,184)"/>
<path d="M0 0 C5.28 0 10.56 0 16 0 C16 5.28 16 10.56 16 16 C10.72 16 5.44 16 0 16 C0 10.72 0 5.44 0 0 Z " fill="#000000" transform="translate(56,192)"/>
<path d="M0 0 C2.64 0 5.28 0 8 0 C8 10.56 8 21.12 8 32 C5.36 32 2.72 32 0 32 C0 21.44 0 10.88 0 0 Z " fill="#000000" transform="translate(104,192)"/>
<path d="M0 0 C5.28 0 10.56 0 16 0 C16 5.28 16 10.56 16 16 C13.36 16 10.72 16 8 16 C8 23.92 8 31.84 8 40 C5.36 40 2.72 40 0 40 C0 45.28 0 50.56 0 56 C-2.64 56 -5.28 56 -8 56 C-8 45.44 -8 34.88 -8 24 C-5.36 24 -2.72 24 0 24 C0 21.36 0 18.72 0 16 C-2.64 16 -5.28 16 -8 16 C-8 13.36 -8 10.72 -8 8 C-5.36 8 -2.72 8 0 8 C0 5.36 0 2.72 0 0 Z " fill="#000000" transform="translate(128,192)"/>
<path d="M0 0 C2.64 0 5.28 0 8 0 C8 2.64 8 5.28 8 8 C10.64 8 13.28 8 16 8 C16 10.64 16 13.28 16 16 C10.72 16 5.44 16 0 16 C0 10.72 0 5.44 0 0 Z " fill="#000000" transform="translate(96,248)"/>
<path d="M0 0 C2.64 0 5.28 0 8 0 C8 5.28 8 10.56 8 16 C10.64 16 13.28 16 16 16 C16 18.64 16 21.28 16 24 C13.36 24 10.72 24 8 24 C8 26.64 8 29.28 8 32 C5.36 32 2.72 32 0 32 C0 29.36 0 26.72 0 24 C-2.64 24 -5.28 24 -8 24 C-8 21.36 -8 18.72 -8 16 C-5.36 16 -2.72 16 0 16 C0 10.72 0 5.44 0 0 Z " fill="#000000" transform="translate(120,256)"/>
<path d="M0 0 C2.64 0 5.28 0 8 0 C8 5.28 8 10.56 8 16 C5.36 16 2.72 16 0 16 C0 10.72 0 5.44 0 0 Z " fill="#000000" transform="translate(144,256)"/>
<path d="M0 0 C2.64 0 5.28 0 8 0 C8 5.28 8 10.56 8 16 C5.36 16 2.72 16 0 16 C0 10.72 0 5.44 0 0 Z " fill="#000000" transform="translate(120,312)"/>
<path d="M0 0 C2.64 0 5.28 0 8 0 C8 2.64 8 5.28 8 8 C10.64 8 13.28 8 16 8 C16 10.64 16 13.28 16 16 C13.36 16 10.72 16 8 16 C8 18.64 8 21.28 8 24 C10.64 24 13.28 24 16 24 C16 29.28 16 34.56 16 40 C18.64 40 21.28 40 24 40 C24 42.64 24 45.28 24 48 C26.64 48 29.28 48 32 48 C32 58.56 32 69.12 32 80 C29.36 80 26.72 80 24 80 C24 72.08 24 64.16 24 56 C21.36 56 18.72 56 16 56 C16 53.36 16 50.72 16 48 C13.36 48 10.72 48 8 48 C8 45.36 8 42.72 8 40 C5.36 40 2.72 40 0 40 C0 42.64 0 45.28 0 48 C-2.64 48 -5.28 48 -8 48 C-8 50.64 -8 53.28 -8 56 C-10.64 56 -13.28 56 -16 56 C-16 63.92 -16 71.84 -16 80 C-18.64 80 -21.28 80 -24 80 C-24 69.44 -24 58.88 -24 48 C-21.36 48 -18.72 48 -16 48 C-16 45.36 -16 42.72 -16 40 C-13.36 40 -10.72 40 -8 40 C-8 34.72 -8 29.44 -8 24 C-5.36 24 -2.72 24 0 24 C0 16.08 0 8.16 0 0 Z " fill="#000000" transform="translate(120,408)"/>
<path d="M0 0 C2.64 0 5.28 0 8 0 C8 5.28 8 10.56 8 16 C2.72 16 -2.56 16 -8 16 C-8 13.36 -8 10.72 -8 8 C-5.36 8 -2.72 8 0 8 C0 5.36 0 2.72 0 0 Z " fill="#000000" transform="translate(120,472)"/>
<path d="M0 0 C5.28 0 10.56 0 16 0 C16 2.64 16 5.28 16 8 C21.28 8 26.56 8 32 8 C32 10.64 32 13.28 32 16 C26.72 16 21.44 16 16 16 C16 31.84 16 47.68 16 64 C18.64 64 21.28 64 24 64 C24 61.36 24 58.72 24 56 C29.28 56 34.56 56 40 56 C40 58.64 40 61.28 40 64 C42.64 64 45.28 64 48 64 C48 66.64 48 69.28 48 72 C37.44 72 26.88 72 16 72 C16 82.56 16 93.12 16 104 C18.64 104 21.28 104 24 104 C24 106.64 24 109.28 24 112 C26.64 112 29.28 112 32 112 C32 114.64 32 117.28 32 120 C34.64 120 37.28 120 40 120 C40 125.28 40 130.56 40 136 C34.72 136 29.44 136 24 136 C24 130.72 24 125.44 24 120 C21.36 120 18.72 120 16 120 C16 125.28 16 130.56 16 136 C10.72 136 5.44 136 0 136 C0 130.72 0 125.44 0 120 C-2.64 120 -5.28 120 -8 120 C-8 117.36 -8 114.72 -8 112 C-10.64 112 -13.28 112 -16 112 C-16 117.28 -16 122.56 -16 128 C-13.36 128 -10.72 128 -8 128 C-8 130.64 -8 133.28 -8 136 C-13.28 136 -18.56 136 -24 136 C-24 133.36 -24 130.72 -24 128 C-26.64 128 -29.28 128 -32 128 C-32 122.72 -32 117.44 -32 112 C-29.36 112 -26.72 112 -24 112 C-24 109.36 -24 106.72 -24 104 C-13.44 104 -2.88 104 8 104 C8 93.44 8 82.88 8 72 C5.36 72 2.72 72 0 72 C0 69.36 0 66.72 0 64 C2.64 64 5.28 64 8 64 C8 48.16 8 32.32 8 16 C2.72 16 -2.56 16 -8 16 C-8 13.36 -8 10.72 -8 8 C-5.36 8 -2.72 8 0 8 C0 5.36 0 2.72 0 0 Z " fill="#000000" transform="translate(112,496)"/>
<path d="M0 0 C2.64 0 5.28 0 8 0 C8 2.64 8 5.28 8 8 C5.36 8 2.72 8 0 8 C0 5.36 0 2.72 0 0 Z " fill="#000000" transform="translate(96,512)"/>
<path d="M0 0 C5.28 0 10.56 0 16 0 C16 2.64 16 5.28 16 8 C13.36 8 10.72 8 8 8 C8 10.64 8 13.28 8 16 C5.36 16 2.72 16 0 16 C0 21.28 0 26.56 0 32 C7.92 32 15.84 32 24 32 C24 37.28 24 42.56 24 48 C18.72 48 13.44 48 8 48 C8 45.36 8 42.72 8 40 C5.36 40 2.72 40 0 40 C0 50.56 0 61.12 0 72 C-2.64 72 -5.28 72 -8 72 C-8 69.36 -8 66.72 -8 64 C-10.64 64 -13.28 64 -16 64 C-16 61.36 -16 58.72 -16 56 C-13.36 56 -10.72 56 -8 56 C-8 50.72 -8 45.44 -8 40 C-10.64 40 -13.28 40 -16 40 C-16 37.36 -16 34.72 -16 32 C-13.36 32 -10.72 32 -8 32 C-8 24.08 -8 16.16 -8 8 C-5.36 8 -2.72 8 0 8 C0 5.36 0 2.72 0 0 Z " fill="#000000" transform="translate(80,520)"/>
<path d="M0 0 C10.56 0 21.12 0 32 0 C32 2.64 32 5.28 32 8 C37.28 8 42.56 8 48 8 C48 10.64 48 13.28 48 16 C34.8 16 21.6 16 8 16 C8 13.36 8 10.72 8 8 C5.36 8 2.72 8 0 8 C0 5.36 0 2.72 0 0 Z " fill="#000000" transform="translate(160,520)"/>
<path d="M0 0 C10.56 0 21.12 0 32 0 C32 2.64 32 5.28 32 8 C29.36 8 26.72 8 24 8 C24 10.64 24 13.28 24 16 C21.36 16 18.72 16 16 16 C16 13.36 16 10.72 16 8 C10.72 8 5.44 8 0 8 C0 5.36 0 2.72 0 0 Z " fill="#000000" transform="translate(32,528)"/>
<path d="M0 0 C2.64 0 5.28 0 8 0 C8 5.28 8 10.56 8 16 C5.36 16 2.72 16 0 16 C0 21.28 0 26.56 0 32 C2.64 32 5.28 32 8 32 C8 34.64 8 37.28 8 40 C10.64 40 13.28 40 16 40 C16 42.64 16 45.28 16 48 C10.72 48 5.44 48 0 48 C0 45.36 0 42.72 0 40 C-2.64 40 -5.28 40 -8 40 C-8 37.36 -8 34.72 -8 32 C-10.64 32 -13.28 32 -16 32 C-16 26.72 -16 21.44 -16 16 C-13.36 16 -10.72 16 -8 16 C-8 13.36 -8 10.72 -8 8 C-5.36 8 -2.72 8 0 8 C0 5.36 0 2.72 0 0 Z " fill="#000000" transform="translate(24,536)"/>
<path d="M0 0 C5.28 0 10.56 0 16 0 C16 2.64 16 5.28 16 8 C13.36 8 10.72 8 8 8 C8 10.64 8 13.28 8 16 C5.36 16 2.72 16 0 16 C0 18.64 0 21.28 0 24 C13.2 24 26.4 24 40 24 C40 18.72 40 13.44 40 8 C37.36 8 34.72 8 32 8 C32 5.36 32 2.72 32 0 C37.28 0 42.56 0 48 0 C48 2.64 48 5.28 48 8 C53.28 8 58.56 8 64 8 C64 13.28 64 18.56 64 24 C58.72 24 53.44 24 48 24 C48 26.64 48 29.28 48 32 C34.8 32 21.6 32 8 32 C8 34.64 8 37.28 8 40 C5.36 40 2.72 40 0 40 C0 37.36 0 34.72 0 32 C-2.64 32 -5.28 32 -8 32 C-8 29.36 -8 26.72 -8 24 C-10.64 24 -13.28 24 -16 24 C-16 21.36 -16 18.72 -16 16 C-13.36 16 -10.72 16 -8 16 C-8 13.36 -8 10.72 -8 8 C-5.36 8 -2.72 8 0 8 C0 5.36 0 2.72 0 0 Z " fill="#000000" transform="translate(184,544)"/>
<path d="M0 0 C5.28 0 10.56 0 16 0 C16 2.64 16 5.28 16 8 C10.72 8 5.44 8 0 8 C0 5.36 0 2.72 0 0 Z " fill="#000000" transform="translate(40,568)"/>
<path d="M0 0 C2.64 0 5.28 0 8 0 C8 2.64 8 5.28 8 8 C5.36 8 2.72 8 0 8 C0 5.36 0 2.72 0 0 Z " fill="#000000" transform="translate(176,600)"/>
<path d="M0 0 C2.64 0 5.28 0 8 0 C8 2.64 8 5.28 8 8 C5.36 8 2.72 8 0 8 C0 5.36 0 2.72 0 0 Z " fill="#000000" transform="translate(168,608)"/>
<path d="M0 0 C2.64 0 5.28 0 8 0 C8 2.64 8 5.28 8 8 C5.36 8 2.72 8 0 8 C0 5.36 0 2.72 0 0 Z " fill="#000000" transform="translate(160,616)"/>
<path d="M0 0 C2.64 0 5.28 0 8 0 C8 2.64 8 5.28 8 8 C5.36 8 2.72 8 0 8 C0 5.36 0 2.72 0 0 Z " fill="#000000" transform="translate(136,640)"/>
<path d="M0 0 C5.28 0 10.56 0 16 0 C16 5.28 16 10.56 16 16 C13.36 16 10.72 16 8 16 C8 13.36 8 10.72 8 8 C5.36 8 2.72 8 0 8 C0 5.36 0 2.72 0 0 Z " fill="#000000" transform="translate(112,648)"/>
<path d="M0 0 C2.64 0 5.28 0 8 0 C8 7.92 8 15.84 8 24 C10.64 24 13.28 24 16 24 C16 26.64 16 29.28 16 32 C10.72 32 5.44 32 0 32 C0 21.44 0 10.88 0 0 Z " fill="#000000" transform="translate(120,672)"/>
</svg>
