<?xml version="1.0" encoding="UTF-8"?>
<!-- Generated by @neplex/vectorizer (Using visioncortex VTracer) -->
<svg xmlns="http://www.w3.org/2000/svg" viewBox="0 0 240 288" width="30" height="36">
<path d="M0 0 C47.52 0 95.04 0 144 0 C144 2.64 144 5.28 144 8 C146.64 8 149.28 8 152 8 C152 10.64 152 13.28 152 16 C154.64 16 157.28 16 160 16 C160 18.64 160 21.28 160 24 C162.64 24 165.28 24 168 24 C168 26.64 168 29.28 168 32 C170.64 32 173.28 32 176 32 C176 34.64 176 37.28 176 40 C178.64 40 181.28 40 184 40 C184 42.64 184 45.28 184 48 C186.64 48 189.28 48 192 48 C192 111.36 192 174.72 192 240 C189.36 240 186.72 240 184 240 C184 242.64 184 245.28 184 248 C181.36 248 178.72 248 176 248 C176 253.28 176 258.56 176 264 C173.36 264 170.72 264 168 264 C168 266.64 168 269.28 168 272 C162.72 272 157.44 272 152 272 C152 277.28 152 282.56 152 288 C101.84 288 51.68 288 0 288 C0 285.36 0 282.72 0 280 C-2.64 280 -5.28 280 -8 280 C-8 277.36 -8 274.72 -8 272 C-10.64 272 -13.28 272 -16 272 C-16 266.72 -16 261.44 -16 256 C-18.64 256 -21.28 256 -24 256 C-24 253.36 -24 250.72 -24 248 C-26.64 248 -29.28 248 -32 248 C-32 245.36 -32 242.72 -32 240 C-34.64 240 -37.28 240 -40 240 C-40 237.36 -40 234.72 -40 232 C-42.64 232 -45.28 232 -48 232 C-48 229.36 -48 226.72 -48 224 C-45.36 224 -42.72 224 -40 224 C-40 171.2 -40 118.4 -40 64 C-42.64 64 -45.28 64 -48 64 C-48 61.36 -48 58.72 -48 56 C-45.36 56 -42.72 56 -40 56 C-40 53.36 -40 50.72 -40 48 C-37.36 48 -34.72 48 -32 48 C-32 45.36 -32 42.72 -32 40 C-29.36 40 -26.72 40 -24 40 C-24 37.36 -24 34.72 -24 32 C-21.36 32 -18.72 32 -16 32 C-16 29.36 -16 26.72 -16 24 C-13.36 24 -10.72 24 -8 24 C-8 21.36 -8 18.72 -8 16 C-5.36 16 -2.72 16 0 16 C0 10.72 0 5.44 0 0 Z M40 48 C40 50.64 40 53.28 40 56 C37.36 56 34.72 56 32 56 C32 58.64 32 61.28 32 64 C29.36 64 26.72 64 24 64 C24 66.64 24 69.28 24 72 C21.36 72 18.72 72 16 72 C16 74.64 16 77.28 16 80 C13.36 80 10.72 80 8 80 C8 122.24 8 164.48 8 208 C10.64 208 13.28 208 16 208 C16 210.64 16 213.28 16 216 C18.64 216 21.28 216 24 216 C24 218.64 24 221.28 24 224 C26.64 224 29.28 224 32 224 C32 226.64 32 229.28 32 232 C34.64 232 37.28 232 40 232 C40 234.64 40 237.28 40 240 C42.64 240 45.28 240 48 240 C48 237.36 48 234.72 48 232 C66.48 232 84.96 232 104 232 C104 234.64 104 237.28 104 240 C106.64 240 109.28 240 112 240 C112 237.36 112 234.72 112 232 C117.28 232 122.56 232 128 232 C128 229.36 128 226.72 128 224 C130.64 224 133.28 224 136 224 C136 221.36 136 218.72 136 216 C138.64 216 141.28 216 144 216 C144 171.12 144 126.24 144 80 C141.36 80 138.72 80 136 80 C136 77.36 136 74.72 136 72 C133.36 72 130.72 72 128 72 C128 69.36 128 66.72 128 64 C125.36 64 122.72 64 120 64 C120 61.36 120 58.72 120 56 C96.24 56 72.48 56 48 56 C48 53.36 48 50.72 48 48 C45.36 48 42.72 48 40 48 Z " fill="#000000" transform="translate(48,0)"/>
</svg>
