<?xml version="1.0" encoding="UTF-8"?>
<!-- Generated by @neplex/vectorizer (Using visioncortex VTracer) -->
<svg xmlns="http://www.w3.org/2000/svg" viewBox="0 0 144 304" width="18" height="38">
<path d="M0 0 C7.92 0 15.84 0 24 0 C24 10.56 24 21.12 24 32 C21.36 32 18.72 32 16 32 C16 39.92 16 47.84 16 56 C13.36 56 10.72 56 8 56 C8 63.92 8 71.84 8 80 C5.36 80 2.72 80 0 80 C0 85.28 0 90.56 0 96 C-2.64 96 -5.28 96 -8 96 C-8 103.92 -8 111.84 -8 120 C-10.64 120 -13.28 120 -16 120 C-16 127.92 -16 135.84 -16 144 C-18.64 144 -21.28 144 -24 144 C-24 149.28 -24 154.56 -24 160 C-26.64 160 -29.28 160 -32 160 C-32 167.92 -32 175.84 -32 184 C-34.64 184 -37.28 184 -40 184 C-40 191.92 -40 199.84 -40 208 C-42.64 208 -45.28 208 -48 208 C-48 213.28 -48 218.56 -48 224 C-50.64 224 -53.28 224 -56 224 C-56 229.28 -56 234.56 -56 240 C-58.64 240 -61.28 240 -64 240 C-64 247.92 -64 255.84 -64 264 C-66.64 264 -69.28 264 -72 264 C-72 271.92 -72 279.84 -72 288 C-74.64 288 -77.28 288 -80 288 C-80 290.64 -80 293.28 -80 296 C-82.64 296 -85.28 296 -88 296 C-88 298.64 -88 301.28 -88 304 C-90.64 304 -93.28 304 -96 304 C-96 301.36 -96 298.72 -96 296 C-98.64 296 -101.28 296 -104 296 C-104 298.64 -104 301.28 -104 304 C-106.64 304 -109.28 304 -112 304 C-112 301.36 -112 298.72 -112 296 C-114.64 296 -117.28 296 -120 296 C-120 293.36 -120 290.72 -120 288 C-117.36 288 -114.72 288 -112 288 C-112 280.08 -112 272.16 -112 264 C-109.36 264 -106.72 264 -104 264 C-104 258.72 -104 253.44 -104 248 C-101.36 248 -98.72 248 -96 248 C-96 240.08 -96 232.16 -96 224 C-93.36 224 -90.72 224 -88 224 C-88 216.08 -88 208.16 -88 200 C-85.36 200 -82.72 200 -80 200 C-80 194.72 -80 189.44 -80 184 C-77.36 184 -74.72 184 -72 184 C-72 176.08 -72 168.16 -72 160 C-69.36 160 -66.72 160 -64 160 C-64 152.08 -64 144.16 -64 136 C-61.36 136 -58.72 136 -56 136 C-56 130.72 -56 125.44 -56 120 C-53.36 120 -50.72 120 -48 120 C-48 112.08 -48 104.16 -48 96 C-45.36 96 -42.72 96 -40 96 C-40 90.72 -40 85.44 -40 80 C-37.36 80 -34.72 80 -32 80 C-32 72.08 -32 64.16 -32 56 C-29.36 56 -26.72 56 -24 56 C-24 48.08 -24 40.16 -24 32 C-21.36 32 -18.72 32 -16 32 C-16 26.72 -16 21.44 -16 16 C-13.36 16 -10.72 16 -8 16 C-8 13.36 -8 10.72 -8 8 C-5.36 8 -2.72 8 0 8 C0 5.36 0 2.72 0 0 Z " fill="#000000" transform="translate(120,0)"/>
</svg>
