<?xml version="1.0" encoding="UTF-8"?>
<!-- Generated by @neplex/vectorizer (Using visioncortex VTracer) -->
<svg xmlns="http://www.w3.org/2000/svg" viewBox="0 0 40 80" width="5" height="10">
<path d="M0 0 C13.2 0 26.4 0 40 0 C40 2.64 40 5.28 40 8 C34.72 8 29.44 8 24 8 C24 18.56 24 29.12 24 40 C26.64 40 29.28 40 32 40 C32 45.28 32 50.56 32 56 C29.36 56 26.72 56 24 56 C24 58.64 24 61.28 24 64 C29.28 64 34.56 64 40 64 C40 69.28 40 74.56 40 80 C26.8 80 13.6 80 0 80 C0 74.72 0 69.44 0 64 C5.28 64 10.56 64 16 64 C16 45.52 16 27.04 16 8 C10.72 8 5.44 8 0 8 C0 5.36 0 2.72 0 0 Z " fill="#000000" transform="translate(0,0)"/>
</svg>
